<svg width="25" height="30" viewBox="0 0 25 30" fill="none" xmlns="http://www.w3.org/2000/svg">
<g clip-path="url(#clip0_118_1725)">
<path d="M12.084 6.85769C13.332 6.85769 14.8965 6.017 15.8281 4.89609C16.6719 3.88026 17.2871 2.4616 17.2871 1.04294C17.2871 0.850285 17.2695 0.657629 17.2344 0.5C15.8457 0.552543 14.1758 1.42826 13.1738 2.60172C12.3828 3.49495 11.6621 4.89609 11.6621 6.33226C11.6621 6.54244 11.6973 6.75261 11.7148 6.82266C11.8027 6.84018 11.9434 6.85769 12.084 6.85769ZM7.68945 28.05C9.39453 28.05 10.1504 26.9116 12.2773 26.9116C14.4395 26.9116 14.9141 28.015 16.8125 28.015C18.6758 28.015 19.9238 26.2986 21.1016 24.6172C22.4199 22.6906 22.9648 20.7991 23 20.7115C22.877 20.6765 19.3086 19.2228 19.3086 15.142C19.3086 11.6041 22.1211 10.0103 22.2793 9.88767C20.416 7.22549 17.5859 7.15544 16.8125 7.15544C14.7207 7.15544 13.0156 8.41646 11.9434 8.41646C10.7832 8.41646 9.25391 7.22549 7.44336 7.22549C3.99805 7.22549 0.5 10.0628 0.5 15.4222C0.5 18.7499 1.80078 22.2703 3.40039 24.5471C4.77148 26.4737 5.9668 28.05 7.68945 28.05Z" fill="black"/>
</g>
<defs>
<clipPath id="clip0_118_1725">
<rect width="24" height="29" fill="white" transform="translate(0.5 0.5)"/>
</clipPath>
</defs>
</svg>
